<?xml version="1.0" encoding="UTF-8"?>
<!DOCTYPE svg PUBLIC "-//W3C//DTD SVG 1.1//EN" "http://www.w3.org/Graphics/SVG/1.1/DTD/svg11.dtd">
<svg xmlns="http://www.w3.org/2000/svg" version="1.1" width="309px" height="309px" style="shape-rendering:geometricPrecision; text-rendering:geometricPrecision; image-rendering:optimizeQuality; fill-rule:evenodd; clip-rule:evenodd" xmlns:xlink="http://www.w3.org/1999/xlink">
<g><path style="opacity:0.043" fill="#111111" d="M 95.5,234.5 C 90.0772,236.281 84.4106,236.781 78.5,236C 66.3028,200.073 54.4695,163.906 43,127.5C 42.3333,125.5 42.3333,123.5 43,121.5C 44.815,119.9 45.9817,117.9 46.5,115.5C 50.7757,112.529 55.4423,110.363 60.5,109C 109.847,98.9134 158.18,85.2467 205.5,68C 207.833,67.3333 210.167,67.3333 212.5,68C 216.555,69.8894 218.888,73.056 219.5,77.5C 222.066,77.6556 224.566,77.3223 227,76.5C 228.473,76.9031 229.806,77.5697 231,78.5C 238.941,118.481 246.775,158.481 254.5,198.5C 253.489,204.675 249.822,207.842 243.5,208C 231.756,209.124 220.089,210.791 208.5,213C 170.9,220.6 133.234,227.766 95.5,234.5 Z"/></g>
<g><path style="opacity:0.298" fill="#5e5e5e" d="M 67.5,194.5 C 69.2766,197.505 70.2766,200.838 70.5,204.5C 68.7234,201.495 67.7234,198.162 67.5,194.5 Z"/></g>
<g><path style="opacity:1" fill="#cecece" d="M 191.5,194.5 C 155.915,200.561 120.415,207.228 85,214.5C 82.8434,213.615 82.0101,211.948 82.5,209.5C 82.5,208.167 82.5,206.833 82.5,205.5C 118.188,198.72 153.855,192.053 189.5,185.5C 190.167,188.5 190.833,191.5 191.5,194.5 Z"/></g>
<g><path style="opacity:0.898" fill="#aaaaaa" d="M 247.5,177.5 C 247.833,177.5 248.167,177.5 248.5,177.5C 249.167,182.5 249.833,187.5 250.5,192.5C 248.125,187.911 247.125,182.911 247.5,177.5 Z"/></g>
<g><path style="opacity:0.353" fill="#616161" d="M 61.5,176.5 C 62.1667,177.5 62.8333,178.5 63.5,179.5C 64.8004,183.096 65.8004,186.763 66.5,190.5C 63.7459,186.305 62.0792,181.638 61.5,176.5 Z"/></g>
<g><path style="opacity:1" fill="#c8c8c8" d="M 186.5,182.5 C 188.802,179.828 189.135,176.828 187.5,173.5C 188.147,172.726 188.48,171.726 188.5,170.5C 187.445,165.853 186.945,161.186 187,156.5C 189.274,164.792 190.441,173.125 190.5,181.5C 189.264,182.246 187.93,182.579 186.5,182.5 Z"/></g>
<g><path style="opacity:0.933" fill="#a1a1a1" d="M 60.5,170.5 C 62.554,173.008 63.554,176.008 63.5,179.5C 62.8333,178.5 62.1667,177.5 61.5,176.5C 61.634,174.708 61.3007,173.042 60.5,171.5C 60.5,171.167 60.5,170.833 60.5,170.5 Z"/></g>
<g><path style="opacity:0.933" fill="#d2d2d2" d="M 239.5,141.5 C 240.167,143.833 240.833,146.167 241.5,148.5C 242.508,152.593 243.508,156.593 244.5,160.5C 244.5,161.833 244.5,163.167 244.5,164.5C 245.167,168.167 245.833,171.833 246.5,175.5C 245.073,173.852 244.24,171.852 244,169.5C 241.957,160.245 240.457,150.912 239.5,141.5 Z"/></g>
<g><path style="opacity:0.647" fill="#7c7c7c" d="M 244.5,164.5 C 245.167,165.5 245.833,166.5 246.5,167.5C 247.482,170.763 248.149,174.097 248.5,177.5C 248.167,177.5 247.833,177.5 247.5,177.5C 246.662,177.158 246.328,176.492 246.5,175.5C 245.833,171.833 245.167,168.167 244.5,164.5 Z"/></g>
<g><path style="opacity:0.133" fill="#3f3f3f" d="M 57.5,165.5 C 58.5,167.5 59.5,169.5 60.5,171.5C 61.3007,173.042 61.634,174.708 61.5,176.5C 59.0103,173.374 57.677,169.708 57.5,165.5 Z"/></g>
<g><path style="opacity:0.337" fill="#4d4d4d" d="M 244.5,160.5 C 245.924,162.515 246.59,164.848 246.5,167.5C 245.833,166.5 245.167,165.5 244.5,164.5C 244.5,163.167 244.5,161.833 244.5,160.5 Z"/></g>
<g><path style="opacity:0.51" fill="#747474" d="M 55.5,157.5 C 57.5505,160.658 59.2172,163.992 60.5,167.5C 60.5,168.5 60.5,169.5 60.5,170.5C 60.5,170.833 60.5,171.167 60.5,171.5C 59.5,169.5 58.5,167.5 57.5,165.5C 56.2504,162.994 55.5838,160.327 55.5,157.5 Z"/></g>
<g><path style="opacity:0.604" fill="#656565" d="M 241.5,141.5 C 243.453,147.556 244.453,153.889 244.5,160.5C 243.508,156.593 242.508,152.593 241.5,148.5C 241.5,146.167 241.5,143.833 241.5,141.5 Z"/></g>
<g><path style="opacity:1" fill="#919191" d="M 96.5,140.5 C 88.6409,143.026 79.9742,145.026 70.5,146.5C 70.7911,145.351 71.6244,144.684 73,144.5C 80.7696,142.712 88.6029,141.379 96.5,140.5 Z"/></g>
<g><path style="opacity:0.455" fill="#606060" d="M 49.5,139.5 C 50.1174,139.611 50.6174,139.944 51,140.5C 52.8212,146.117 54.3212,151.783 55.5,157.5C 52.5271,151.915 50.5271,145.915 49.5,139.5 Z"/></g>
<g><path style="opacity:0.906" fill="#b2b2b2" d="M 238.5,131.5 C 239.184,134.592 240.184,137.592 241.5,140.5C 241.5,140.833 241.5,141.167 241.5,141.5C 241.5,143.833 241.5,146.167 241.5,148.5C 240.833,146.167 240.167,143.833 239.5,141.5C 238.676,138.236 238.342,134.902 238.5,131.5 Z"/></g>
<g><path style="opacity:1" fill="#949494" d="M 117.5,136.5 C 113.006,138.368 107.672,139.701 101.5,140.5C 100.274,140.48 99.2739,140.147 98.5,139.5C 104.77,138.113 111.104,137.113 117.5,136.5 Z"/></g>
<g><path style="opacity:0.565" fill="#666666" d="M 45.5,122.5 C 45.2322,124.099 45.5655,125.432 46.5,126.5C 48.5063,130.537 49.5063,134.87 49.5,139.5C 47.7341,135.715 46.2341,131.715 45,127.5C 44.2204,125.613 44.3871,123.946 45.5,122.5 Z"/></g>
<g><path style="opacity:1" fill="#949494" d="M 226.5,116.5 C 192.856,123.062 159.189,129.562 125.5,136C 123.288,136.789 121.288,136.622 119.5,135.5C 153.494,129.068 187.494,122.568 221.5,116C 224.021,115.2 225.688,115.367 226.5,116.5 Z"/></g>
<g><path style="opacity:1" fill="#5e5e5e" d="M 179.5,131.5 C 181.189,139.616 182.856,147.616 184.5,155.5C 185.5,161.5 186.5,167.5 187.5,173.5C 189.135,176.828 188.802,179.828 186.5,182.5C 151.198,189.05 115.864,195.384 80.5,201.5C 78.4697,186.713 75.8031,172.047 72.5,157.5C 72.1667,154.833 71.8333,152.167 71.5,149.5C 106.455,142.729 141.455,136.062 176.5,129.5C 178.03,129.64 179.03,130.307 179.5,131.5 Z"/></g>
<g><path style="opacity:1" fill="#cecece" d="M 91.5,178.5 C 92.2323,179.808 93.0656,181.142 94,182.5C 96.3303,179.818 96.8303,180.151 95.5,183.5C 99.6033,187.298 99.27,187.965 94.5,185.5C 93.8076,186.025 93.3076,186.692 93,187.5C 91.8512,184.607 91.3512,181.607 91.5,178.5 Z"/></g>
<g><path style="opacity:1" fill="#c9c9c9" d="M 98.5,176.5 C 99.9311,176.881 100.764,177.881 101,179.5C 104.923,178.062 107.09,179.562 107.5,184C 107.167,184.5 106.833,185 106.5,185.5C 106.302,182.215 104.635,180.548 101.5,180.5C 101.662,182.527 101.495,184.527 101,186.5C 99.7225,183.279 98.8891,179.946 98.5,176.5 Z"/></g>
<g><path style="opacity:1" fill="#cbcbcb" d="M 110.5,176.5 C 115.262,177.092 116.596,179.592 114.5,184C 108.202,184.495 106.868,181.995 110.5,176.5 Z"/></g>
<g><path style="opacity:1" fill="#676767" d="M 110.5,178.5 C 113.5,178.167 114.833,179.5 114.5,182.5C 112.833,182.5 111.167,182.5 109.5,182.5C 109.433,181.041 109.766,179.708 110.5,178.5 Z"/></g>
<g><path style="opacity:1" fill="#cbcbcb" d="M 118.5,175.5 C 123.675,174.507 125.509,176.507 124,181.5C 123.846,178.475 122.346,176.809 119.5,176.5C 119.663,178.857 119.497,181.19 119,183.5C 117.188,180.954 117.022,178.288 118.5,175.5 Z"/></g>
<g><path style="opacity:1" fill="#c3c3c3" d="M 127.5,173.5 C 129.5,173.5 131.5,173.5 133.5,173.5C 134.329,176.469 134.495,179.469 134,182.5C 132.401,184.036 130.567,184.536 128.5,184C 129.759,183.077 131.092,182.243 132.5,181.5C 127.095,181.701 125.428,179.035 127.5,173.5 Z"/></g>
<g><path style="opacity:1" fill="#656565" d="M 127.5,175.5 C 128.873,175.343 130.207,175.51 131.5,176C 132.674,178.829 131.674,179.829 128.5,179C 127.663,177.989 127.33,176.822 127.5,175.5 Z"/></g>
<g><path style="opacity:1" fill="#b2b2b2" d="M 110.5,176.5 C 108.343,175.947 108.51,174.947 111,173.5C 111.75,174.126 112.584,174.626 113.5,175C 112.263,175.232 111.263,175.732 110.5,176.5 Z"/></g>
<g><path style="opacity:1" fill="#d2d2d2" d="M 145.5,170.5 C 149.001,176.322 147.335,178.822 140.5,178C 139.424,176.274 139.257,174.441 140,172.5C 141.948,171.891 143.782,171.224 145.5,170.5 Z"/></g>
<g><path style="opacity:1" fill="#696969" d="M 141.5,172.5 C 145.161,172.35 146.161,173.85 144.5,177C 140.707,177.487 139.707,175.987 141.5,172.5 Z"/></g>
<g><path style="opacity:1" fill="#cbcbcb" d="M 150.5,169.5 C 155.494,169.329 157.328,171.662 156,176.5C 152.97,168.335 150.97,168.668 150,177.5C 148.045,174.521 148.212,171.855 150.5,169.5 Z"/></g>
<g><path style="opacity:1" fill="#c7c7c7" d="M 157.5,165.5 C 159.93,166.896 162.43,168.229 165,169.5C 165.667,171.167 165.667,172.833 165,174.5C 163.731,173.095 163.231,171.429 163.5,169.5C 162.167,169.5 160.833,169.5 159.5,169.5C 159.662,171.527 159.495,173.527 159,175.5C 157.957,172.243 157.457,168.91 157.5,165.5 Z"/></g>
<g><path style="opacity:1" fill="#c5c5c5" d="M 166.5,163.5 C 173.124,163.367 174.124,165.701 169.5,170.5C 169.167,170.167 168.833,169.833 168.5,169.5C 169.95,168.15 170.617,166.484 170.5,164.5C 169.178,164.33 168.011,164.663 167,165.5C 166.536,164.906 166.369,164.239 166.5,163.5 Z"/></g>
<g><path style="opacity:1" fill="#cecece" d="M 95.5,153.5 C 97.1992,153.34 98.8659,153.506 100.5,154C 99.376,154.249 98.376,154.749 97.5,155.5C 98.5617,158.103 98.7284,160.77 98,163.5C 96.6253,161.063 96.1253,158.397 96.5,155.5C 95.1266,155.657 93.7932,155.49 92.5,155C 93.7375,154.768 94.7375,154.268 95.5,153.5 Z"/></g>
<g><path style="opacity:1" fill="#808080" d="M 105.5,156.5 C 106.001,158.246 106.668,159.246 107.5,159.5C 108.776,160.386 108.776,161.386 107.5,162.5C 106.199,161.522 105.032,161.855 104,163.5C 102.97,163.164 102.47,162.497 102.5,161.5C 103.925,163.031 104.591,162.698 104.5,160.5C 105.434,159.432 105.768,158.099 105.5,156.5 Z"/></g>
<g><path style="opacity:1" fill="#d9d9d9" d="M 111.5,155.5 C 113.377,156.659 113.877,158.326 113,160.5C 112.392,158.846 111.892,157.179 111.5,155.5 Z"/></g>
<g><path style="opacity:1" fill="#bfbfbf" d="M 104.5,160.5 C 104.591,162.698 103.925,163.031 102.5,161.5C 102.338,159.473 102.505,157.473 103,155.5C 104.269,156.905 104.769,158.571 104.5,160.5 Z"/></g>
<g><path style="opacity:1" fill="#cacaca" d="M 121.5,151.5 C 126.778,152.605 126.612,153.605 121,154.5C 120.316,155.784 120.483,156.951 121.5,158C 122.951,157.737 124.284,157.904 125.5,158.5C 121.876,160.396 119.876,159.396 119.5,155.5C 119.803,153.886 120.47,152.552 121.5,151.5 Z"/></g>
<g><path style="opacity:1" fill="#dbdbdb" d="M 111.5,155.5 C 108.5,155.167 107.167,156.5 107.5,159.5C 106.668,159.246 106.001,158.246 105.5,156.5C 107.32,154.539 109.32,154.206 111.5,155.5 Z"/></g>
<g><path style="opacity:1" fill="#c3c3c3" d="M 126.5,148.5 C 128.636,149.719 130.969,150.552 133.5,151C 134.576,152.726 134.743,154.559 134,156.5C 133.846,153.475 132.346,151.809 129.5,151.5C 129.808,153.924 129.474,156.257 128.5,158.5C 127.402,155.247 126.736,151.914 126.5,148.5 Z"/></g>
<g><path style="opacity:0.776" fill="#888888" d="M 47.5,120.5 C 47.8333,120.5 48.1667,120.5 48.5,120.5C 47.3702,122.315 46.7036,124.315 46.5,126.5C 45.5655,125.432 45.2322,124.099 45.5,122.5C 45.8333,121.5 46.5,120.833 47.5,120.5 Z"/></g>
<g><path style="opacity:0.995" fill="#b9b9b9" d="M 54.5,113.5 C 55.1667,113.5 55.8333,113.5 56.5,113.5C 56.1667,114.167 55.8333,114.833 55.5,115.5C 54.2209,116.968 52.5542,117.635 50.5,117.5C 50.5668,119.401 50.2335,121.234 49.5,123C 53.4804,137.771 57.147,152.604 60.5,167.5C 59.2172,163.992 57.5505,160.658 55.5,157.5C 54.3212,151.783 52.8212,146.117 51,140.5C 50.6174,139.944 50.1174,139.611 49.5,139.5C 49.5063,134.87 48.5063,130.537 46.5,126.5C 46.7036,124.315 47.3702,122.315 48.5,120.5C 48.3505,119.448 48.5172,118.448 49,117.5C 50.98,116.251 52.8133,114.918 54.5,113.5 Z"/></g>
<g><path style="opacity:0.451" fill="#565656" d="M 235.5,113.5 C 236.793,114.842 237.626,116.509 238,118.5C 239.493,125.791 240.66,133.125 241.5,140.5C 240.184,137.592 239.184,134.592 238.5,131.5C 238.142,127.491 237.642,123.491 237,119.5C 236.722,118.584 236.222,117.918 235.5,117.5C 235.5,116.167 235.5,114.833 235.5,113.5 Z"/></g>
<g><path style="opacity:1" fill="#e8e8e8" d="M 226.5,116.5 C 227.688,117.364 228.855,118.364 230,119.5C 230.741,118.359 231.575,118.359 232.5,119.5C 233.522,119.145 234.189,118.478 234.5,117.5C 234.833,117.5 235.167,117.5 235.5,117.5C 236.222,117.918 236.722,118.584 237,119.5C 237.642,123.491 238.142,127.491 238.5,131.5C 238.342,134.902 238.676,138.236 239.5,141.5C 240.457,150.912 241.957,160.245 244,169.5C 244.24,171.852 245.073,173.852 246.5,175.5C 246.328,176.492 246.662,177.158 247.5,177.5C 247.125,182.911 248.125,187.911 250.5,192.5C 250.813,196.042 250.479,199.375 249.5,202.5C 243.662,202.615 237.995,203.115 232.5,204C 231.167,203.333 231.167,202.667 232.5,202C 236.145,201.281 239.812,200.781 243.5,200.5C 243.5,199.5 243.5,198.5 243.5,197.5C 241.901,197.768 240.568,197.434 239.5,196.5C 239.833,196.5 240.167,196.5 240.5,196.5C 241.586,196.38 242.253,195.713 242.5,194.5C 241.4,190.051 240.4,185.717 239.5,181.5C 238.833,177.167 238.167,172.833 237.5,168.5C 222.89,171.046 208.224,173.379 193.5,175.5C 195.68,184.733 197.346,194.066 198.5,203.5C 200.5,203.5 202.5,203.5 204.5,203.5C 205.239,203.369 205.906,203.536 206.5,204C 204.26,204.977 201.927,205.477 199.5,205.5C 199.5,206.5 199.5,207.5 199.5,208.5C 209.719,206.021 220.052,204.521 230.5,204C 228.881,204.236 227.881,205.069 227.5,206.5C 218.559,207.438 209.892,209.104 201.5,211.5C 199.435,211.517 197.435,211.85 195.5,212.5C 191.922,212.549 188.589,213.215 185.5,214.5C 179.434,215.978 173.434,217.311 167.5,218.5C 166.167,218.5 164.833,218.5 163.5,218.5C 160.097,218.851 156.763,219.518 153.5,220.5C 154.058,219.21 155.058,218.377 156.5,218C 159.817,217.502 163.15,217.335 166.5,217.5C 166.5,216.5 166.5,215.5 166.5,214.5C 164.712,214.785 163.045,214.452 161.5,213.5C 171.969,210.406 182.636,208.072 193.5,206.5C 193.367,209.925 194.033,210.258 195.5,207.5C 196.139,206.903 196.472,206.07 196.5,205C 194.999,197.497 193.499,189.997 192,182.5C 192.056,187.514 192.556,192.514 193.5,197.5C 192.833,196.5 192.167,195.5 191.5,194.5C 190.833,191.5 190.167,188.5 189.5,185.5C 153.855,192.053 118.188,198.72 82.5,205.5C 82.5,206.833 82.5,208.167 82.5,209.5C 81.4206,206.722 80.7539,204.055 80.5,201.5C 115.864,195.384 151.198,189.05 186.5,182.5C 187.93,182.579 189.264,182.246 190.5,181.5C 190.441,173.125 189.274,164.792 187,156.5C 186.945,161.186 187.445,165.853 188.5,170.5C 188.48,171.726 188.147,172.726 187.5,173.5C 186.5,167.5 185.5,161.5 184.5,155.5C 184.721,152.903 185.221,152.903 186,155.5C 185.197,146.808 183.864,138.141 182,129.5C 181.667,129.167 181.333,128.833 181,128.5C 180.768,129.737 180.268,130.737 179.5,131.5C 179.03,130.307 178.03,129.64 176.5,129.5C 141.455,136.062 106.455,142.729 71.5,149.5C 71.8333,152.167 72.1667,154.833 72.5,157.5C 71.0748,154.339 69.4081,151.173 67.5,148C 68.2438,146.961 69.2438,146.461 70.5,146.5C 79.9742,145.026 88.6409,143.026 96.5,140.5C 96.8417,139.662 97.5084,139.328 98.5,139.5C 99.2739,140.147 100.274,140.48 101.5,140.5C 107.672,139.701 113.006,138.368 117.5,136.5C 117.842,135.662 118.508,135.328 119.5,135.5C 121.288,136.622 123.288,136.789 125.5,136C 159.189,129.562 192.856,123.062 226.5,116.5 Z"/></g>
<g><path style="opacity:1" fill="#b4b4b4" d="M 195.5,207.5 C 195.212,204.061 194.546,200.728 193.5,197.5C 192.556,192.514 192.056,187.514 192,182.5C 193.499,189.997 194.999,197.497 196.5,205C 196.472,206.07 196.139,206.903 195.5,207.5 Z"/></g>
<g><path style="opacity:1" fill="#7e7e7e" d="M 239.5,181.5 C 240.4,185.717 241.4,190.051 242.5,194.5C 242.253,195.713 241.586,196.38 240.5,196.5C 240.804,195.85 241.137,195.183 241.5,194.5C 239.935,190.313 239.268,185.98 239.5,181.5 Z"/></g>
<g><path style="opacity:1" fill="#5c5c5c" d="M 239.5,181.5 C 239.268,185.98 239.935,190.313 241.5,194.5C 241.137,195.183 240.804,195.85 240.5,196.5C 240.167,196.5 239.833,196.5 239.5,196.5C 227.62,198.393 215.954,200.726 204.5,203.5C 202.5,203.5 200.5,203.5 198.5,203.5C 197.346,194.066 195.68,184.733 193.5,175.5C 208.224,173.379 222.89,171.046 237.5,168.5C 238.167,172.833 238.833,177.167 239.5,181.5 Z"/></g>
<g><path style="opacity:1" fill="#d1d1d1" d="M 232.5,161.5 C 233.833,161.5 235.167,161.5 236.5,161.5C 236.5,162.5 236.5,163.5 236.5,164.5C 224.369,165.911 212.369,168.077 200.5,171C 197.773,171.818 195.106,171.652 192.5,170.5C 205.853,167.173 219.186,164.173 232.5,161.5 Z"/></g>
<g><path style="opacity:1" fill="#d0d0d0" d="M 229.5,157.5 C 231.604,157.201 233.604,157.534 235.5,158.5C 221.861,162.19 208.028,165.19 194,167.5C 193.5,167.167 193,166.833 192.5,166.5C 193.912,165.194 195.579,164.36 197.5,164C 208.365,162.138 219.031,159.972 229.5,157.5 Z"/></g>
<g><path style="opacity:1" fill="#d0d0d0" d="M 228.5,153.5 C 230.604,153.201 232.604,153.534 234.5,154.5C 223.391,157.608 212.057,160.108 200.5,162C 197.446,162.821 194.446,162.655 191.5,161.5C 204.029,159.14 216.362,156.474 228.5,153.5 Z"/></g>
<g><path style="opacity:1" fill="#c6c6c6" d="M 141.5,148.5 C 143.229,149.953 144.229,151.953 144.5,154.5C 138.628,157.606 135.961,155.94 136.5,149.5C 136.698,152.785 138.365,154.452 141.5,154.5C 141.5,152.5 141.5,150.5 141.5,148.5 Z"/></g>
<g><path style="opacity:1" fill="#d1d1d1" d="M 227.5,149.5 C 229.604,149.201 231.604,149.534 233.5,150.5C 220.102,153.891 206.602,156.891 193,159.5C 192.167,159.167 191.333,158.833 190.5,158.5C 191.714,156.931 193.381,156.098 195.5,156C 206.363,154.128 217.029,151.961 227.5,149.5 Z"/></g>
<g><path style="opacity:1" fill="#c4c4c4" d="M 146.5,145.5 C 151.675,145.835 153.341,148.502 151.5,153.5C 149.591,154.348 147.591,154.682 145.5,154.5C 144.974,151.192 146.307,149.026 149.5,148C 148.167,147.667 146.833,147.333 145.5,147C 146.056,146.617 146.389,146.117 146.5,145.5 Z"/></g>
<g><path style="opacity:1" fill="#656565" d="M 147.5,150.5 C 150.957,150.667 151.29,151.667 148.5,153.5C 147.614,152.675 147.281,151.675 147.5,150.5 Z"/></g>
<g><path style="opacity:1" fill="#d0d0d0" d="M 226.5,145.5 C 228.604,145.201 230.604,145.534 232.5,146.5C 218.377,150.125 204.044,153.125 189.5,155.5C 189.5,154.5 189.5,153.5 189.5,152.5C 202.092,150.904 214.425,148.571 226.5,145.5 Z"/></g>
<g><path style="opacity:1" fill="#d3d3d3" d="M 184.5,155.5 C 182.856,147.616 181.189,139.616 179.5,131.5C 180.268,130.737 180.768,129.737 181,128.5C 181.333,128.833 181.667,129.167 182,129.5C 183.864,138.141 185.197,146.808 186,155.5C 185.221,152.903 184.721,152.903 184.5,155.5 Z"/></g>
<g><path style="opacity:1" fill="#cbcbcb" d="M 155.5,145.5 C 160.675,144.507 162.509,146.507 161,151.5C 160.846,148.475 159.346,146.809 156.5,146.5C 156.663,148.857 156.497,151.19 156,153.5C 154.188,150.954 154.022,148.288 155.5,145.5 Z"/></g>
<g><path style="opacity:1" fill="#a8a8a8" d="M 146.5,145.5 C 145.226,144.811 145.226,143.977 146.5,143C 148.217,142.039 149.884,141.372 151.5,141C 150.929,142.205 150.262,143.372 149.5,144.5C 148.078,143.223 147.078,143.557 146.5,145.5 Z"/></g>
<g><path style="opacity:1" fill="#d0d0d0" d="M 224.5,141.5 C 234.968,141.82 234.968,142.987 224.5,145C 212.821,147.168 201.155,149.335 189.5,151.5C 188.614,150.675 188.281,149.675 188.5,148.5C 200.804,147.082 212.804,144.749 224.5,141.5 Z"/></g>
<g><path style="opacity:1" fill="#d0d0d0" d="M 225.5,137.5 C 227.604,137.201 229.604,137.534 231.5,138.5C 216.889,141.756 202.222,144.756 187.5,147.5C 187.5,146.5 187.5,145.5 187.5,144.5C 200.369,142.58 213.036,140.246 225.5,137.5 Z"/></g>
<g><path style="opacity:1" fill="#d1d1d1" d="M 227.5,132.5 C 228.5,132.5 229.5,132.5 230.5,132.5C 230.5,133.5 230.5,134.5 230.5,135.5C 215.813,138.037 201.146,140.704 186.5,143.5C 186.5,142.5 186.5,141.5 186.5,140.5C 200.331,138.067 213.997,135.4 227.5,132.5 Z"/></g>
<g><path style="opacity:1" fill="#cecece" d="M 224.5,119.5 C 225.833,119.5 227.167,119.5 228.5,119.5C 228.963,122.482 229.296,125.482 229.5,128.5C 214.768,130.85 200.101,133.517 185.5,136.5C 185.492,133.455 185.159,130.455 184.5,127.5C 198.003,125.101 211.336,122.435 224.5,119.5 Z"/></g>
<g><path style="opacity:1" fill="#d5d5d5" d="M 55.5,115.5 C 60.0054,142.197 64.8387,168.864 70,195.5C 74.235,204.931 77.4017,213.764 79.5,222C 78.5495,225.057 78.2161,228.223 78.5,231.5C 78.1667,231.5 77.8333,231.5 77.5,231.5C 77.702,229.05 77.3686,226.717 76.5,224.5C 75.7648,217.338 73.7648,210.672 70.5,204.5C 70.2766,200.838 69.2766,197.505 67.5,194.5C 67.7678,192.901 67.4345,191.568 66.5,190.5C 65.8004,186.763 64.8004,183.096 63.5,179.5C 63.554,176.008 62.554,173.008 60.5,170.5C 60.5,169.5 60.5,168.5 60.5,167.5C 57.147,152.604 53.4804,137.771 49.5,123C 50.2335,121.234 50.5668,119.401 50.5,117.5C 52.5542,117.635 54.2209,116.968 55.5,115.5 Z"/></g>
<g><path style="opacity:0.459" fill="#555555" d="M 54.5,113.5 C 52.8133,114.918 50.98,116.251 49,117.5C 48.5172,118.448 48.3505,119.448 48.5,120.5C 48.1667,120.5 47.8333,120.5 47.5,120.5C 47.4446,115.888 49.7779,113.555 54.5,113.5 Z"/></g>
<g><path style="opacity:0.675" fill="#777777" d="M 60.5,111.5 C 59.4863,112.674 58.153,113.34 56.5,113.5C 55.8333,113.5 55.1667,113.5 54.5,113.5C 56.1016,111.926 58.1016,111.259 60.5,111.5 Z"/></g>
<g><path style="opacity:0.525" fill="#5b5b5b" d="M 66.5,109.5 C 65.8333,110.167 65.1667,110.833 64.5,111.5C 63.1667,111.5 61.8333,111.5 60.5,111.5C 62.1016,109.926 64.1016,109.259 66.5,109.5 Z"/></g>
<g><path style="opacity:0.929" fill="#b4b4b4" d="M 81.5,107.5 C 81.3893,108.117 81.056,108.617 80.5,109C 75.173,109.943 69.8397,110.777 64.5,111.5C 65.1667,110.833 65.8333,110.167 66.5,109.5C 67.1667,109.5 67.8333,109.5 68.5,109.5C 72.8333,108.833 77.1667,108.167 81.5,107.5 Z"/></g>
<g><path style="opacity:0.914" fill="#c5c5c5" d="M 230.5,90.5 C 231.167,92.5 231.833,94.5 232.5,96.5C 232.5,97.8333 232.5,99.1667 232.5,100.5C 232.528,103.916 233.528,106.916 235.5,109.5C 235.5,110.833 235.5,112.167 235.5,113.5C 235.5,114.833 235.5,116.167 235.5,117.5C 235.167,117.5 234.833,117.5 234.5,117.5C 232.054,108.712 230.721,99.7124 230.5,90.5 Z"/></g>
<g><path style="opacity:0.588" fill="#777777" d="M 232.5,100.5 C 233.167,101.5 233.833,102.5 234.5,103.5C 235.15,105.435 235.483,107.435 235.5,109.5C 233.528,106.916 232.528,103.916 232.5,100.5 Z"/></g>
<g><path style="opacity:0.4" fill="#4a4a4a" d="M 84.5,105.5 C 83.5,106.167 82.5,106.833 81.5,107.5C 77.1667,108.167 72.8333,108.833 68.5,109.5C 73.5638,107.548 78.8971,106.215 84.5,105.5 Z"/></g>
<g><path style="opacity:0.882" fill="#acacac" d="M 99.5,103.5 C 99.0825,104.222 98.4158,104.722 97.5,105C 92.1939,106.067 86.8605,106.901 81.5,107.5C 82.5,106.833 83.5,106.167 84.5,105.5C 86.9029,105.552 89.2362,105.219 91.5,104.5C 94.1667,104.167 96.8333,103.833 99.5,103.5 Z"/></g>
<g><path style="opacity:0.314" fill="#484848" d="M 232.5,96.5 C 233.924,98.5145 234.59,100.848 234.5,103.5C 233.833,102.5 233.167,101.5 232.5,100.5C 232.5,99.1667 232.5,97.8333 232.5,96.5 Z"/></g>
<g><path style="opacity:0.682" fill="#696969" d="M 110.5,99.5 C 110.5,99.8333 110.5,100.167 110.5,100.5C 106.981,101.632 103.314,102.632 99.5,103.5C 96.8333,103.833 94.1667,104.167 91.5,104.5C 97.4808,101.963 103.814,100.297 110.5,99.5 Z"/></g>
<g><path style="opacity:0.969" fill="#b8b8b8" d="M 125.5,96.5 C 126.833,96.5 128.167,96.5 129.5,96.5C 123.571,99.2283 117.238,100.562 110.5,100.5C 110.5,100.167 110.5,99.8333 110.5,99.5C 113.152,99.5905 115.485,98.9238 117.5,97.5C 120.167,97.1667 122.833,96.8333 125.5,96.5 Z"/></g>
<g><path style="opacity:0.471" fill="#4e4e4e" d="M 117.5,97.5 C 115.485,98.9238 113.152,99.5905 110.5,99.5C 112.515,98.0762 114.848,97.4095 117.5,97.5 Z"/></g>
<g><path style="opacity:0.278" fill="#4d4d4d" d="M 230.5,85.5 C 232.217,88.8448 232.884,92.5115 232.5,96.5C 231.833,94.5 231.167,92.5 230.5,90.5C 230.5,89.8333 230.5,89.1667 230.5,88.5C 230.5,87.5 230.5,86.5 230.5,85.5 Z"/></g>
<g><path style="opacity:0.435" fill="#595959" d="M 165.5,83.5 C 162.5,84.8333 159.5,86.1667 156.5,87.5C 147.243,90.056 138.243,93.056 129.5,96.5C 128.167,96.5 126.833,96.5 125.5,96.5C 138.35,90.9952 151.683,86.6619 165.5,83.5 Z"/></g>
<g><path style="opacity:1" fill="#ebebeb" d="M 228.5,82.5 C 228.595,84.7857 229.262,86.7857 230.5,88.5C 230.5,89.1667 230.5,89.8333 230.5,90.5C 230.721,99.7124 232.054,108.712 234.5,117.5C 234.189,118.478 233.522,119.145 232.5,119.5C 231.575,118.359 230.741,118.359 230,119.5C 228.855,118.364 227.688,117.364 226.5,116.5C 225.688,115.367 224.021,115.2 221.5,116C 187.494,122.568 153.494,129.068 119.5,135.5C 118.508,135.328 117.842,135.662 117.5,136.5C 111.104,137.113 104.77,138.113 98.5,139.5C 97.5084,139.328 96.8417,139.662 96.5,140.5C 88.6029,141.379 80.7696,142.712 73,144.5C 71.6244,144.684 70.7911,145.351 70.5,146.5C 69.2438,146.461 68.2438,146.961 67.5,148C 69.4081,151.173 71.0748,154.339 72.5,157.5C 75.8031,172.047 78.4697,186.713 80.5,201.5C 80.7539,204.055 81.4206,206.722 82.5,209.5C 82.0101,211.948 82.8434,213.615 85,214.5C 120.415,207.228 155.915,200.561 191.5,194.5C 192.167,195.5 192.833,196.5 193.5,197.5C 194.546,200.728 195.212,204.061 195.5,207.5C 194.033,210.258 193.367,209.925 193.5,206.5C 182.636,208.072 171.969,210.406 161.5,213.5C 163.045,214.452 164.712,214.785 166.5,214.5C 166.5,215.5 166.5,216.5 166.5,217.5C 163.15,217.335 159.817,217.502 156.5,218C 155.058,218.377 154.058,219.21 153.5,220.5C 151.5,220.833 149.5,221.167 147.5,221.5C 142.283,220.802 137.616,221.802 133.5,224.5C 132.833,224.5 132.167,224.5 131.5,224.5C 127.154,224.334 122.821,224.501 118.5,225C 116.45,225.416 115.116,226.583 114.5,228.5C 113.432,229.434 112.099,229.768 110.5,229.5C 105.273,229.978 100.273,230.978 95.5,232.5C 95.1667,232.5 94.8333,232.5 94.5,232.5C 89.1053,232.733 83.772,232.4 78.5,231.5C 78.2161,228.223 78.5495,225.057 79.5,222C 77.4017,213.764 74.235,204.931 70,195.5C 64.8387,168.864 60.0054,142.197 55.5,115.5C 55.8333,114.833 56.1667,114.167 56.5,113.5C 58.153,113.34 59.4863,112.674 60.5,111.5C 61.8333,111.5 63.1667,111.5 64.5,111.5C 69.8397,110.777 75.173,109.943 80.5,109C 81.056,108.617 81.3893,108.117 81.5,107.5C 86.8605,106.901 92.1939,106.067 97.5,105C 98.4158,104.722 99.0825,104.222 99.5,103.5C 103.314,102.632 106.981,101.632 110.5,100.5C 117.238,100.562 123.571,99.2283 129.5,96.5C 132.85,96.665 136.183,96.4983 139.5,96C 162.424,90.9266 185.424,86.26 208.5,82C 215.163,81.832 221.829,81.9987 228.5,82.5 Z"/></g>
<g><path style="opacity:1" fill="#cecece" d="M 216.5,88.5 C 218.5,88.5 220.5,88.5 222.5,88.5C 223.173,94.7134 224.173,100.88 225.5,107C 225.441,108.436 225.108,109.769 224.5,111C 172.559,121.147 120.559,130.98 68.5,140.5C 67.2545,132.869 66.2545,125.203 65.5,117.5C 83.8152,114.27 102.149,111.104 120.5,108C 152.635,101.593 184.635,95.0927 216.5,88.5 Z"/></g>
<g><path style="opacity:0.478" fill="#494949" d="M 202.5,71.5 C 201.329,72.3446 199.995,73.0113 198.5,73.5C 187.868,77.0447 177.201,80.378 166.5,83.5C 178.042,78.5416 190.042,74.5416 202.5,71.5 Z"/></g>
<g><path style="opacity:0.655" fill="#7e7e7e" d="M 218.5,79.5 C 222.182,79.3347 225.848,79.5014 229.5,80C 230.406,81.6995 230.739,83.5328 230.5,85.5C 230.5,86.5 230.5,87.5 230.5,88.5C 229.262,86.7857 228.595,84.7857 228.5,82.5C 225.452,80.8813 222.119,79.8813 218.5,79.5 Z"/></g>
<g><path style="opacity:0.973" fill="#a4a4a4" d="M 198.5,73.5 C 196.249,74.8175 194.249,76.4842 192.5,78.5C 180.558,81.7129 168.558,84.7129 156.5,87.5C 159.5,86.1667 162.5,84.8333 165.5,83.5C 165.833,83.5 166.167,83.5 166.5,83.5C 177.201,80.378 187.868,77.0447 198.5,73.5 Z"/></g>
<g><path style="opacity:0.502" fill="#656565" d="M 215.5,73.5 C 217.975,74.6874 218.975,76.6874 218.5,79.5C 217.692,77.7798 216.692,76.1131 215.5,74.5C 215.5,74.1667 215.5,73.8333 215.5,73.5 Z"/></g>
<g><path style="opacity:0.996" fill="#b6b6b6" d="M 213.5,72.5 C 213.842,73.3382 214.508,73.6716 215.5,73.5C 215.5,73.8333 215.5,74.1667 215.5,74.5C 207.637,74.7158 199.971,76.0492 192.5,78.5C 194.249,76.4842 196.249,74.8175 198.5,73.5C 199.995,73.0113 201.329,72.3446 202.5,71.5C 206.385,69.9842 210.052,70.3175 213.5,72.5 Z"/></g>
<g><path style="opacity:1" fill="#d3d3d3" d="M 215.5,74.5 C 216.692,76.1131 217.692,77.7798 218.5,79.5C 222.119,79.8813 225.452,80.8813 228.5,82.5C 221.829,81.9987 215.163,81.832 208.5,82C 185.424,86.26 162.424,90.9266 139.5,96C 136.183,96.4983 132.85,96.665 129.5,96.5C 138.243,93.056 147.243,90.056 156.5,87.5C 168.558,84.7129 180.558,81.7129 192.5,78.5C 199.971,76.0492 207.637,74.7158 215.5,74.5 Z"/></g>
<g><path style="opacity:0.494" fill="#545454" d="M 213.5,72.5 C 210.052,70.3175 206.385,69.9842 202.5,71.5C 202.611,70.8826 202.944,70.3826 203.5,70C 206.167,69.3333 208.833,69.3333 211.5,70C 212.381,70.7083 213.047,71.5416 213.5,72.5 Z"/></g>
<g><path style="opacity:1" fill="#d1d1d1" d="M 187.5,198.5 C 189.167,198.5 190.833,198.5 192.5,198.5C 192.5,199.5 192.5,200.5 192.5,201.5C 181.794,202.908 171.127,204.575 160.5,206.5C 160.5,205.5 160.5,204.5 160.5,203.5C 169.764,202.593 178.764,200.926 187.5,198.5 Z"/></g>
<g><path style="opacity:0.988" fill="#d5d5d5" d="M 239.5,196.5 C 240.568,197.434 241.901,197.768 243.5,197.5C 243.5,198.5 243.5,199.5 243.5,200.5C 239.812,200.781 236.145,201.281 232.5,202C 231.167,202.667 231.167,203.333 232.5,204C 237.995,203.115 243.662,202.615 249.5,202.5C 247.739,203.313 246.072,204.313 244.5,205.5C 240.176,205.927 235.842,206.261 231.5,206.5C 230.167,206.5 228.833,206.5 227.5,206.5C 227.881,205.069 228.881,204.236 230.5,204C 220.052,204.521 209.719,206.021 199.5,208.5C 199.5,207.5 199.5,206.5 199.5,205.5C 201.927,205.477 204.26,204.977 206.5,204C 205.906,203.536 205.239,203.369 204.5,203.5C 215.954,200.726 227.62,198.393 239.5,196.5 Z"/></g>
<g><path style="opacity:0.541" fill="#747474" d="M 250.5,192.5 C 251.765,193.514 252.431,195.014 252.5,197C 253.047,201.765 251.047,204.598 246.5,205.5C 245.833,205.5 245.167,205.5 244.5,205.5C 246.072,204.313 247.739,203.313 249.5,202.5C 250.479,199.375 250.813,196.042 250.5,192.5 Z"/></g>
<g><path style="opacity:0.22" fill="#404040" d="M 244.5,205.5 C 245.167,205.5 245.833,205.5 246.5,205.5C 239.736,207.235 232.736,208.235 225.5,208.5C 227.5,207.833 229.5,207.167 231.5,206.5C 235.842,206.261 240.176,205.927 244.5,205.5 Z"/></g>
<g><path style="opacity:0.227" fill="#626262" d="M 70.5,204.5 C 73.7648,210.672 75.7648,217.338 76.5,224.5C 74.0811,218.063 72.0811,211.396 70.5,204.5 Z"/></g>
<g><path style="opacity:1" fill="#d0d0d0" d="M 188.5,202.5 C 190.167,202.5 191.833,202.5 193.5,202.5C 193.5,203.5 193.5,204.5 193.5,205.5C 183.274,206.711 173.108,208.378 163,210.5C 162.167,210.167 161.333,209.833 160.5,209.5C 169.873,206.945 179.206,204.612 188.5,202.5 Z"/></g>
<g><path style="opacity:0.463" fill="#8d8d8d" d="M 227.5,206.5 C 228.833,206.5 230.167,206.5 231.5,206.5C 229.5,207.167 227.5,207.833 225.5,208.5C 222.794,208.575 220.127,208.908 217.5,209.5C 213.295,209.717 209.295,210.383 205.5,211.5C 204.167,211.5 202.833,211.5 201.5,211.5C 209.892,209.104 218.559,207.438 227.5,206.5 Z"/></g>
<g><path style="opacity:0.122" fill="#373737" d="M 217.5,209.5 C 213.79,211.136 209.79,211.802 205.5,211.5C 209.295,210.383 213.295,209.717 217.5,209.5 Z"/></g>
<g><path style="opacity:1" fill="#d0d0d0" d="M 150.5,205.5 C 151.833,205.5 153.167,205.5 154.5,205.5C 154.5,206.5 154.5,207.5 154.5,208.5C 144.732,209.52 135.066,211.187 125.5,213.5C 124.5,213.167 123.5,212.833 122.5,212.5C 131.906,210.136 141.24,207.803 150.5,205.5 Z"/></g>
<g><path style="opacity:1" fill="#d1d1d1" d="M 152.5,209.5 C 153.5,209.5 154.5,209.5 155.5,209.5C 155.5,210.5 155.5,211.5 155.5,212.5C 145.977,213.971 136.477,215.638 127,217.5C 125.833,217.167 124.667,216.833 123.5,216.5C 133.229,214.27 142.896,211.937 152.5,209.5 Z"/></g>
<g><path style="opacity:0.259" fill="#5f5f5f" d="M 201.5,211.5 C 199.898,213.074 197.898,213.741 195.5,213.5C 195.5,213.167 195.5,212.833 195.5,212.5C 197.435,211.85 199.435,211.517 201.5,211.5 Z"/></g>
<g><path style="opacity:0.671" fill="#a6a6a6" d="M 195.5,212.5 C 195.5,212.833 195.5,213.167 195.5,213.5C 192.193,214.051 188.86,214.384 185.5,214.5C 188.589,213.215 191.922,212.549 195.5,212.5 Z"/></g>
<g><path style="opacity:0.145" fill="#444444" d="M 195.5,213.5 C 186.558,216.639 177.224,218.306 167.5,218.5C 173.434,217.311 179.434,215.978 185.5,214.5C 188.86,214.384 192.193,214.051 195.5,213.5 Z"/></g>
<g><path style="opacity:1" fill="#d0d0d0" d="M 112.5,212.5 C 113.833,212.5 115.167,212.5 116.5,212.5C 116.5,213.5 116.5,214.5 116.5,215.5C 106.794,216.887 97.1275,218.553 87.5,220.5C 86.5,220.167 85.5,219.833 84.5,219.5C 93.9267,217.159 103.26,214.825 112.5,212.5 Z"/></g>
<g><path style="opacity:1" fill="#d1d1d1" d="M 148.5,214.5 C 150.924,214.192 153.257,214.526 155.5,215.5C 145.004,218.473 134.337,220.806 123.5,222.5C 123.5,221.5 123.5,220.5 123.5,219.5C 132.104,218.559 140.437,216.892 148.5,214.5 Z"/></g>
<g><path style="opacity:1" fill="#d0d0d0" d="M 111.5,217.5 C 113.604,217.201 115.604,217.534 117.5,218.5C 106.933,221.141 96.266,223.474 85.5,225.5C 85.5,224.5 85.5,223.5 85.5,222.5C 94.4044,221.434 103.071,219.767 111.5,217.5 Z"/></g>
<g><path style="opacity:0.494" fill="#898989" d="M 163.5,218.5 C 162.5,219.167 161.5,219.833 160.5,220.5C 157.273,220.676 154.273,221.343 151.5,222.5C 150.167,222.5 148.833,222.5 147.5,222.5C 147.5,222.167 147.5,221.833 147.5,221.5C 149.5,221.167 151.5,220.833 153.5,220.5C 156.763,219.518 160.097,218.851 163.5,218.5 Z"/></g>
<g><path style="opacity:0.22" fill="#4d4d4d" d="M 163.5,218.5 C 164.833,218.5 166.167,218.5 167.5,218.5C 165.485,219.924 163.152,220.59 160.5,220.5C 161.5,219.833 162.5,219.167 163.5,218.5 Z"/></g>
<g><path style="opacity:0.969" fill="#bebebe" d="M 147.5,221.5 C 147.5,221.833 147.5,222.167 147.5,222.5C 142.833,223.167 138.167,223.833 133.5,224.5C 137.616,221.802 142.283,220.802 147.5,221.5 Z"/></g>
<g><path style="opacity:1" fill="#d1d1d1" d="M 112.5,221.5 C 114.604,221.201 116.604,221.534 118.5,222.5C 107.685,225.62 96.6852,227.953 85.5,229.5C 85.5,228.5 85.5,227.5 85.5,226.5C 94.743,225.45 103.743,223.783 112.5,221.5 Z"/></g>
<g><path style="opacity:0.133" fill="#434343" d="M 147.5,222.5 C 148.833,222.5 150.167,222.5 151.5,222.5C 143.41,224.58 135.076,225.913 126.5,226.5C 128.167,225.833 129.833,225.167 131.5,224.5C 132.167,224.5 132.833,224.5 133.5,224.5C 138.167,223.833 142.833,223.167 147.5,222.5 Z"/></g>
<g><path style="opacity:0.988" fill="#c2c2c2" d="M 131.5,224.5 C 129.833,225.167 128.167,225.833 126.5,226.5C 122.5,227.167 118.5,227.833 114.5,228.5C 115.116,226.583 116.45,225.416 118.5,225C 122.821,224.501 127.154,224.334 131.5,224.5 Z"/></g>
<g><path style="opacity:0.204" fill="#595959" d="M 110.5,229.5 C 106.874,231.498 102.874,232.498 98.5,232.5C 97.5,232.5 96.5,232.5 95.5,232.5C 100.273,230.978 105.273,229.978 110.5,229.5 Z"/></g>
<g><path style="opacity:0.2" fill="#464646" d="M 77.5,231.5 C 77.8333,231.5 78.1667,231.5 78.5,231.5C 80.3914,234.172 83.0581,235.172 86.5,234.5C 84.3718,235.629 82.0385,235.796 79.5,235C 78.1772,234.184 77.5106,233.017 77.5,231.5 Z"/></g>
<g><path style="opacity:0.929" fill="#b7b7b7" d="M 78.5,231.5 C 83.772,232.4 89.1053,232.733 94.5,232.5C 92.1667,233.167 89.8333,233.833 87.5,234.5C 87.1667,234.5 86.8333,234.5 86.5,234.5C 83.0581,235.172 80.3914,234.172 78.5,231.5 Z"/></g>
<g><path style="opacity:0.106" fill="#353535" d="M 94.5,232.5 C 94.8333,232.5 95.1667,232.5 95.5,232.5C 96.5,232.5 97.5,232.5 98.5,232.5C 97.5,233.167 96.5,233.833 95.5,234.5C 92.8333,234.5 90.1667,234.5 87.5,234.5C 89.8333,233.833 92.1667,233.167 94.5,232.5 Z"/></g>
</svg>
